<svg xmlns="http://www.w3.org/2000/svg" viewBox="0 0 128 128"><path fill="#68217A" d="M115.4 30.7L67.1 2.9c-.8-.5-1.9-.7-3.1-.7-1.2 0-2.3.3-3.1.7l-48 27.9c-1.7 1-2.9 3.5-2.9 5.4v55.7c0 1.1.2 2.4 1 3.5l106.8-62c-.6-1.2-1.5-2.1-2.4-2.7z"/><path fill="#4E1E6A" d="M10.7 95.3c.5.8 1.2 1.5 1.9 1.9l48.2 27.9c.8.5 1.9.7 3.1.7 1.2 0 2.3-.3 3.1-.7l48-27.9c1.7-1 2.9-3.5 2.9-5.4V36.1c0-.9-.1-1.9-.6-2.8l-106.6 62z"/><path fill="#fff" d="M85.3 76.3C81.1 83.6 73.1 88.6 64 88.6c-13.5 0-24.6-11-24.6-24.6s11-24.6 24.6-24.6c9.1 0 17.1 5 21.3 12.3l13-7.5c-6.8-11.8-19.6-19.8-34.3-19.8-21.8 0-39.6 17.7-39.6 39.6s17.7 39.6 39.6 39.6c14.6 0 27.5-8 34.3-19.8l-13-7.5zM100 57h-3v-3h-4v3h-3v4h3v3h4v-3h3v-4z"/></svg>
