<svg xmlns="http://www.w3.org/2000/svg" viewBox="0 0 128 128"><path fill-rule="evenodd" clip-rule="evenodd" fill="#3A4D54" d="M73.8 50.8h11.3v11.5h5.7c2.6 0 5.3-.5 7.8-1.3 1.2-.4 2.6-1 3.8-1.7-1.6-2.1-2.4-4.7-2.6-7.3-.3-3.5.4-8.1 2.8-10.8l1.2-1.4 1.4 1.1c3.6 2.8 6.6 6.7 7.1 11.2 4.3-1.3 9.3-1 13.1 1.2l1.5.9-.8 1.6c-3.2 6.2-9.9 8.2-16.4 7.8-9.8 24.3-31 35.8-56.8 35.8-13.3 0-25.5-5-32.5-16.8l-.1-.2-1-2.1c-2.4-5.2-3.1-10.9-2.6-16.6l.2-1.7h9.6V50.8h11.3V39.6h22.5V28.3h13.5v22.5z"/><path fill="#00AADA" d="M110.4 55.1c.8-7.1-3.8-12.5-6.2-14.6-3.6 4-4.1 14.5.2 19.4-3.7 2.6-10.8 4.3-16.5 4.3H8.8c-.6 6.2.1 12.5 2.7 18.1 2.8 5.9 7 10.1 12.2 12.7 6.2 3.1 13 4.6 20.2 4.6 5.4 0 10.4-.7 15.2-2.1 5.2-1.5 10-3.8 14.3-7 3.9-2.8 7.3-6.3 10.2-10.5 3.7-5.5 5.9-11.5 7.4-17.7h-2.1c5.4 0 14.4-.5 21.5-7.2z"/><path fill="#28B8EB" d="M110.4 55.1c.8-7.1-3.8-12.5-6.2-14.6-3.6 4-4.1 14.5.2 19.4-3.7 2.6-10.8 4.3-16.5 4.3h-55c-.3 3.1-.3 6.4.2 9.8h54.9c5.4 0 14.4-.5 21.5-7.2.5-.5.9-1.1 1.3-1.7-.2-.2-.3-.3-.4-.4 0-.1 0-.1-.1-.2-.3-.4-.7-.8-1.1-1.2-.1-.1-.2-.2-.3-.3-.3-.3-.6-.6-.9-.9-.1-.1-.2-.2-.2-.3 0 0 0-.1-.1-.1l-.6-.6c-.1-.1-.2-.3-.4-.4-.2-.2-.3-.3-.5-.5-.1-.1-.2-.3-.3-.4-.2-.2-.3-.3-.5-.5-.1-.1-.2-.3-.3-.4-.2-.2-.3-.3-.5-.5-.1-.1-.2-.3-.3-.4-.2-.2-.3-.3-.5-.5-.1-.1-.2-.3-.3-.4-.1-.2-.2-.3-.4-.5-.1-.1-.2-.2-.3-.4-.1-.2-.2-.3-.4-.5-.1-.1-.2-.2-.3-.3-.1-.2-.2-.3-.4-.5-.1-.1-.2-.2-.2-.3-.1-.2-.3-.4-.4-.6l-.2-.2z"/><path fill="#028BB8" d="M18.7 71.8c.4 3.3 1.4 6.6 2.8 9.5 2.8 5.9 7 10.1 12.2 12.7 6.2 3.1 13 4.6 20.2 4.6 5.4 0 10.4-.7 15.2-2.1 5.2-1.5 10-3.8 14.3-7 3.9-2.8 7.3-6.3 10.2-10.5 2.4-3.5 4.2-7.4 5.6-11.5l-80.5-.7z"/><path fill="#019BC6" d="M23.5 84.8c1.8 2.4 3.9 4.5 6.3 6.2 6.2 3.1 13 4.6 20.2 4.6 5.4 0 10.4-.7 15.2-2.1 5.2-1.5 10-3.8 14.3-7 3.9-2.8 7.3-6.3 10.2-10.5.9-1.4 1.8-2.8 2.5-4.3H18.8c1.1 4.5 2.6 8.8 4.7 13.1z"/><path fill="#00ACD3" d="M28.4 50.8h9.8v9.8h-9.8v-9.8zm1.3 1.3h2.3v7.3h-2.3v-7.3zm3.2 0h2.3v7.3h-2.3v-7.3zm3.2 0h2.1v7.3h-2.1v-7.3z"/><path fill="#23C2EE" d="M39.8 50.8h9.8v9.8h-9.8v-9.8zm1.3 1.3h2.3v7.3h-2.3v-7.3zm3.2 0h2.3v7.3h-2.3v-7.3zm3.2 0h2v7.3h-2v-7.3z"/><path fill="#00ACD3" d="M51.1 50.8h9.8v9.8h-9.8v-9.8zm1.3 1.3h2.3v7.3h-2.3v-7.3zm3.3 0h2.3v7.3h-2.3v-7.3zm3.2 0h2v7.3h-2v-7.3z"/><path fill="#23C2EE" d="M62.5 50.8h9.8v9.8h-9.8v-9.8zm1.3 1.3h2.3v7.3h-2.3v-7.3zm3.2 0h2.3v7.3H67v-7.3zm3.2 0h2v7.3h-2v-7.3z"/><path fill="#00ACD3" d="M73.8 50.8h9.8v9.8h-9.8v-9.8zm1.3 1.3h2.3v7.3h-2.3v-7.3zm3.3 0h2.3v7.3h-2.3v-7.3zm3.2 0h2v7.3h-2v-7.3z"/><path fill="#23C2EE" d="M62.5 39.6h9.8v9.8h-9.8v-9.8zm1.3 1.2h2.3v7.3h-2.3v-7.3zm3.2 0h2.3v7.3H67v-7.3zm3.2 0h2v7.3h-2v-7.3z"/><path fill="#00ACD3" d="M39.8 39.6h9.8v9.8h-9.8v-9.8zm1.3 1.2h2.3v7.3h-2.3v-7.3zm3.2 0h2.3v7.3h-2.3v-7.3zm3.2 0h2v7.3h-2v-7.3z"/><path fill="#23C2EE" d="M51.1 39.6h9.8v9.8h-9.8v-9.8zm1.3 1.2h2.3v7.3h-2.3v-7.3zm3.3 0h2.3v7.3h-2.3v-7.3zm3.2 0h2v7.3h-2v-7.3z"/><path fill="#00ACD3" d="M73.8 39.6h9.8v9.8h-9.8v-9.8zm1.3 1.2h2.3v7.3h-2.3v-7.3zm3.3 0h2.3v7.3h-2.3v-7.3zm3.2 0h2v7.3h-2v-7.3z"/><path fill="#23C2EE" d="M62.5 28.3h9.8v9.8h-9.8v-9.8zm1.3 1.3h2.3v7.2h-2.3v-7.2zm3.2 0h2.3v7.2H67v-7.2zm3.2 0h2v7.2h-2v-7.2z"/></svg>
