<svg xmlns="http://www.w3.org/2000/svg" viewBox="0 0 128 128"><path d="M126.67 98.44c-4.56 1.16-7.38.05-9.91-3.75-5.68-8.51-11.95-16.63-18-24.9-.78-1.07-1.59-2.12-2.6-3.45C89 76 81.85 85.2 75.14 94.77c-2.4 3.42-4.92 4.91-9.22 3.71l26.5-33.63-25.75-33.87c4.41-.91 7.13-.33 9.65 3.45 5.37 8.09 11.27 15.85 17.15 23.58 5.95-7.78 11.8-15.6 17.27-23.7 2.41-3.6 5.04-4.63 9.28-3.42l-10.63 13.58c-4.04 5.15-8.08 10.3-12.21 15.35-1.07 1.31-1.07 2.14.01 3.45 8.38 10.66 16.7 21.38 25.48 32.6zM1.33 61.74c.72-3.61 1.2-7.29 2.2-10.83 6-21.43 30.6-30.34 47.5-17.06C60.93 41.64 63.39 52.2 62.87 65H7.72c-.64 24.12 17.74 37.51 37.19 26.47 5.77-3.27 8.73-8.83 10.08-15.21 1.8-.44 3.56-.86 5.4-1.29 1.23 11.35-3.97 22.86-14.2 28.57C30.4 112.51 8.41 101.4 3.84 83.44c-1.39-5.45-1.64-11.14-2.47-16.72v-4.98z M7.27 60.25h50.1c-.49-16.93-11.48-29.1-25.83-28.98C17.11 31.4 7.92 43.47 7.27 60.25z"/></svg>
