<svg xmlns="http://www.w3.org/2000/svg" viewBox="0 0 128 128"><path fill="#99425B" d="M124.129 63.02c0-7.692-5.828-14.165-13.652-16.012L128 .236H41.16l17.563 46.772C50.15 48.853 44.29 55.343 44.29 63.02c0 5.21 2.717 9.86 6.65 12.756-.93 1.467-1.682 3.103-2.006 4.907-1.197 6.558 2.03 12.807 7.697 15.696-1.004 7.08 2.876 14.21 9.98 17.128 9.634 3.965 20.594-.674 24.477-10.357 1.291-3.22 1.553-6.623.95-9.81l14.4-.015c7.86-1.852 13.69-8.333 13.69-16.305zM92.677 92.088a9.712 9.712 0 01-5.032 5.46c-6.224 2.56-13.298-.494-15.85-6.727-.528-1.293-.737-2.648-.722-3.986h16.343c3.555-.005 5.27-1.086 7.44-2.96a12.262 12.262 0 01-2.18 8.213zm2.622-20.168H56.282c-5.105 0-9.278-4.233-9.278-9.403 0-5.166 4.173-9.4 9.278-9.4h39.017c5.117 0 9.284 4.234 9.284 9.4 0 5.17-4.167 9.403-9.284 9.403z"/><circle fill="#99425B" cx="72.088" cy="63.02" r="6.702"/><circle fill="#99425B" cx="56.282" cy="63.02" r="4.136"/><circle fill="#99425B" cx="95.3" cy="63.02" r="4.136"/></svg>
