<svg xmlns="http://www.w3.org/2000/svg" viewBox="0 0 128 128"><path fill="#f26322" d="M55.9 0h16.2v48.2l-8.1 10.4-8.1-10.4V0z"/><path fill="#f26322" d="M55.9 128h16.2V79.8l-8.1-10.4-8.1 10.4V128z"/><path fill="#00b9f1" d="M22.1 19.1L34 28.8l30 35 3.6-10.7L56 38.6 22.1 19.1z"/><path fill="#00b9f1" d="M105.9 108.9L94 99.2l-30-35-3.6 10.7L72 89.4l33.9 19.5z"/><path fill="#d63aff" d="M0 72.1l14.3-8.3L48 64l8.1 10.4-11.6 6.7L0 72.1z"/><path fill="#d63aff" d="M128 55.9l-14.3 8.3L80 64l-8.1-10.4 11.6-6.7L128 55.9z"/><path fill="#fb015b" d="M22.1 108.9l11.9-29.8 30.2-4.3-3.5 13.3-5.1 1.5L22.1 108.9z"/><path fill="#fb015b" d="M105.9 19.1L94 48.9l-30.2 4.3 3.5-13.3 5.1-1.5L105.9 19.1z"/></svg>
