<svg xmlns="http://www.w3.org/2000/svg" viewBox="0 0 128 128"><path fill="#f44250" d="M107.3 88.5c-8.5 0-15.4 6.4-16.3 14.6H78.5c-3.4 0-6.1-2.8-6.1-6.1V70.1c0-4.3-1.5-8.3-4-11.4 2.5-3.2 4-7.1 4-11.4V31c0-3.4 2.8-6.1 6.1-6.1H91c1 8.2 7.9 14.6 16.3 14.6 9.1 0 16.5-7.4 16.5-16.5S116.4 6.5 107.3 6.5c-8.5 0-15.4 6.4-16.3 14.6h-12.5C70 21.1 63 28.2 63 36.7v10.1H38v-3c0-9.1-7.4-16.5-16.5-16.5S5 34.7 5 43.8s7.4 16.5 16.5 16.5c6.5 0 12.1-3.8 14.8-9.2H63v45.9c0 9.3 7.5 16.9 16.8 16.9H91c1 8.2 7.9 14.6 16.3 14.6 9.1 0 16.5-7.4 16.5-16.5s-7.4-16.5-16.5-16.5zM107.3 17.3c5.1 0 9.2 4.1 9.2 9.2s-4.1 9.2-9.2 9.2-9.2-4.1-9.2-9.2 4.1-9.2 9.2-9.2zM21.5 49.5c-3.1 0-5.7-2.5-5.7-5.7s2.5-5.7 5.7-5.7 5.7 2.5 5.7 5.7-2.5 5.7-5.7 5.7zm85.8 49.8c5.1 0 9.2 4.1 9.2 9.2s-4.1 9.2-9.2 9.2-9.2-4.1-9.2-9.2 4.1-9.2 9.2-9.2z"/></svg>
