<svg xmlns="http://www.w3.org/2000/svg" viewBox="0 0 100 100"><path fill="#764ABC" d="M65.6 65.4c3.4-.7 5.8-3.7 5.7-7.2-.1-4-3.5-7.1-7.5-7h-.3c-4.1.1-7.3 3.5-7.2 7.6.1 2.1 1 3.8 2.3 5.1-4.9 9.7-12.4 16.8-23.7 22.7-7.6 4-15.5 5.4-23.4 4.4-6.4-.8-11.5-3.5-14.8-8.3-4.9-7.2-5.3-15.1-1.2-22.9 2.9-5.6 7.5-9.7 10.6-11.9-0.6-2.1-1.4-5.6-1.9-8.1C-8.9 50.4-6.4 67.9.4 78.3c5.1 7.7 15.4 12.5 26.6 12.5 3 0 6.1-.4 9.1-1.1 19.4-4.3 34.2-17 39.5-37.3zm24.5-16.1C80.3 37.4 66 31.6 53.7 31.6h-2.6c-1.5-2.8-4.4-4.7-7.7-4.7h-.3c-4.1.1-7.3 3.5-7.2 7.6.1 4 3.5 7.1 7.5 7h.3c3.5-.1 6.4-2.3 7.5-5.4h2.9c7.4 0 14.4 2.2 20.7 6.4 4.8 3.2 8.3 7.4 10.2 12.5 1.6 4.3 1.5 8.4-.2 12-2.6 5.4-7 8.4-12.7 8.4-3.7 0-7.1-1.1-8.9-2-1.5 1.4-4.3 3.7-6.2 5.1 4.6 2.2 9.4 3.4 13.8 3.4 10.2 0 17.7-5.7 20.6-11.3 3.1-6.1 2.9-16.6-5.3-25.3zm-68.4 25c.1 4 3.5 7.1 7.5 7h.3c4.1-.1 7.3-3.5 7.2-7.6-.1-4-3.5-7.1-7.5-7h-.3c-.3 0-.6 0-.9.1C23.4 58 20.5 48.4 20.1 39.4c-.3-6.5 1.6-12.1 5.7-16.8 3.4-3.9 10-5.8 14.5-5.9 12.5-.2 17.8 15.3 18.2 21.6 2.1.6 5.7 1.8 8.2 2.7C65.2 23.5 53.5 9.5 39.5 9.5c-12.9 0-24.8 9.3-29.4 23-6.2 18.6-1.9 36.5 6.7 50.5-1.1 1.5-1.8 3.5-1.7 5.6z"/></svg>
