<svg xmlns="http://www.w3.org/2000/svg" viewBox="0 0 400 400"><rect fill="#3178c6" width="400" height="400" rx="50"/><path fill="#fff" clip-rule="evenodd" fill-rule="evenodd" d="m231 280v41c6 4 14 7 24 9s19 3 29 3c10 0 17-1 25-3s13-6 19-10c5-5 9-10 12-17s4-15 4-24c0-7-1-13-3-18s-5-10-9-14-9-8-14-11-11-7-18-10c-5-2-9-5-12-7s-6-4-8-7-3-5-4-7-1-5-1-8c0-3 1-5 2-7s3-4 5-6 5-3 8-4 6-1 10-1c3 0 6 0 9 1s6 2 9 3 6 2 8 4 4 3 5 5v-39c-6-2-13-3-20-4s-14-1-22-1c-10 0-18 1-26 4s-14 6-19 11-9 10-12 17-4 14-4 22c0 12 3 22 10 30s17 15 30 20c5 2 10 5 14 7s7 5 9 7 4 5 5 8 1 5 1 8c0 2 0 5-2 7s-3 4-5 5-5 3-8 3-7 1-11 1c-10 0-19-2-28-7s-16-11-21-18zm-94-32h52v-34H83v34h52v145h52z"/></svg>
